<?xml version="1.0" encoding="utf-8" standalone="no"?>
<!DOCTYPE svg PUBLIC "-//W3C//DTD SVG 1.1//EN"
  "http://www.w3.org/Graphics/SVG/1.1/DTD/svg11.dtd">
<svg xmlns:xlink="http://www.w3.org/1999/xlink" width="289.0725pt" height="281.634375pt" viewBox="0 0 289.0725 281.634375" xmlns="http://www.w3.org/2000/svg" version="1.1">
 <metadata>
  <rdf:RDF xmlns:dc="http://purl.org/dc/elements/1.1/" xmlns:cc="http://creativecommons.org/ns#" xmlns:rdf="http://www.w3.org/1999/02/22-rdf-syntax-ns#">
   <cc:Work>
    <dc:type rdf:resource="http://purl.org/dc/dcmitype/StillImage"/>
    <dc:date>2023-08-23T20:55:17.532582</dc:date>
    <dc:format>image/svg+xml</dc:format>
    <dc:creator>
     <cc:Agent>
      <dc:title>Matplotlib v3.7.1, https://matplotlib.org/</dc:title>
     </cc:Agent>
    </dc:creator>
   </cc:Work>
  </rdf:RDF>
 </metadata>
 <defs>
  <style type="text/css">*{stroke-linejoin: round; stroke-linecap: butt}</style>
 </defs>
 <g id="figure_1">
  <g id="patch_1">
   <path d="M 0 281.634375 
L 289.0725 281.634375 
L 289.0725 0 
L 0 0 
z
" style="fill: #ffffff"/>
  </g>
  <g id="axes_1">
   <g id="patch_2">
    <path d="M 52.160938 244.078125 
L 273.920937 244.078125 
L 273.920937 22.318125 
L 52.160938 22.318125 
z
" style="fill: #ffffff"/>
   </g>
   <g id="matplotlib.axis_1">
    <g id="xtick_1">
     <g id="line2d_1">
      <path d="M 52.160938 244.078125 
L 52.160938 22.318125 
" clip-path="url(#p9102ca8cbc)" style="fill: none; stroke: #b0b0b0; stroke-width: 0.8; stroke-linecap: square"/>
     </g>
     <g id="line2d_2">
      <defs>
       <path id="m57e8b98934" d="M 0 0 
L 0 3.5 
" style="stroke: #000000; stroke-width: 0.8"/>
      </defs>
      <g>
       <use xlink:href="#m57e8b98934" x="52.160938" y="244.078125" style="stroke: #000000; stroke-width: 0.8"/>
      </g>
     </g>
     <g id="text_1">
      <!-- −2.0 -->
      <g transform="translate(40.019531 258.676562) scale(0.1 -0.1)">
       <defs>
        <path id="DejaVuSans-2212" d="M 678 2272 
L 4684 2272 
L 4684 1741 
L 678 1741 
L 678 2272 
z
" transform="scale(0.015625)"/>
        <path id="DejaVuSans-32" d="M 1228 531 
L 3431 531 
L 3431 0 
L 469 0 
L 469 531 
Q 828 903 1448 1529 
Q 2069 2156 2228 2338 
Q 2531 2678 2651 2914 
Q 2772 3150 2772 3378 
Q 2772 3750 2511 3984 
Q 2250 4219 1831 4219 
Q 1534 4219 1204 4116 
Q 875 4013 500 3803 
L 500 4441 
Q 881 4594 1212 4672 
Q 1544 4750 1819 4750 
Q 2544 4750 2975 4387 
Q 3406 4025 3406 3419 
Q 3406 3131 3298 2873 
Q 3191 2616 2906 2266 
Q 2828 2175 2409 1742 
Q 1991 1309 1228 531 
z
" transform="scale(0.015625)"/>
        <path id="DejaVuSans-2e" d="M 684 794 
L 1344 794 
L 1344 0 
L 684 0 
L 684 794 
z
" transform="scale(0.015625)"/>
        <path id="DejaVuSans-30" d="M 2034 4250 
Q 1547 4250 1301 3770 
Q 1056 3291 1056 2328 
Q 1056 1369 1301 889 
Q 1547 409 2034 409 
Q 2525 409 2770 889 
Q 3016 1369 3016 2328 
Q 3016 3291 2770 3770 
Q 2525 4250 2034 4250 
z
M 2034 4750 
Q 2819 4750 3233 4129 
Q 3647 3509 3647 2328 
Q 3647 1150 3233 529 
Q 2819 -91 2034 -91 
Q 1250 -91 836 529 
Q 422 1150 422 2328 
Q 422 3509 836 4129 
Q 1250 4750 2034 4750 
z
" transform="scale(0.015625)"/>
       </defs>
       <use xlink:href="#DejaVuSans-2212"/>
       <use xlink:href="#DejaVuSans-32" x="83.789062"/>
       <use xlink:href="#DejaVuSans-2e" x="147.412109"/>
       <use xlink:href="#DejaVuSans-30" x="179.199219"/>
      </g>
     </g>
    </g>
    <g id="xtick_2">
     <g id="line2d_3">
      <path d="M 89.120938 244.078125 
L 89.120938 22.318125 
" clip-path="url(#p9102ca8cbc)" style="fill: none; stroke: #b0b0b0; stroke-width: 0.8; stroke-linecap: square"/>
     </g>
     <g id="line2d_4">
      <g>
       <use xlink:href="#m57e8b98934" x="89.120938" y="244.078125" style="stroke: #000000; stroke-width: 0.8"/>
      </g>
     </g>
     <g id="text_2">
      <!-- −1.5 -->
      <g transform="translate(76.979531 258.676562) scale(0.1 -0.1)">
       <defs>
        <path id="DejaVuSans-31" d="M 794 531 
L 1825 531 
L 1825 4091 
L 703 3866 
L 703 4441 
L 1819 4666 
L 2450 4666 
L 2450 531 
L 3481 531 
L 3481 0 
L 794 0 
L 794 531 
z
" transform="scale(0.015625)"/>
        <path id="DejaVuSans-35" d="M 691 4666 
L 3169 4666 
L 3169 4134 
L 1269 4134 
L 1269 2991 
Q 1406 3038 1543 3061 
Q 1681 3084 1819 3084 
Q 2600 3084 3056 2656 
Q 3513 2228 3513 1497 
Q 3513 744 3044 326 
Q 2575 -91 1722 -91 
Q 1428 -91 1123 -41 
Q 819 9 494 109 
L 494 744 
Q 775 591 1075 516 
Q 1375 441 1709 441 
Q 2250 441 2565 725 
Q 2881 1009 2881 1497 
Q 2881 1984 2565 2268 
Q 2250 2553 1709 2553 
Q 1456 2553 1204 2497 
Q 953 2441 691 2322 
L 691 4666 
z
" transform="scale(0.015625)"/>
       </defs>
       <use xlink:href="#DejaVuSans-2212"/>
       <use xlink:href="#DejaVuSans-31" x="83.789062"/>
       <use xlink:href="#DejaVuSans-2e" x="147.412109"/>
       <use xlink:href="#DejaVuSans-35" x="179.199219"/>
      </g>
     </g>
    </g>
    <g id="xtick_3">
     <g id="line2d_5">
      <path d="M 126.080938 244.078125 
L 126.080938 22.318125 
" clip-path="url(#p9102ca8cbc)" style="fill: none; stroke: #b0b0b0; stroke-width: 0.8; stroke-linecap: square"/>
     </g>
     <g id="line2d_6">
      <g>
       <use xlink:href="#m57e8b98934" x="126.080938" y="244.078125" style="stroke: #000000; stroke-width: 0.8"/>
      </g>
     </g>
     <g id="text_3">
      <!-- −1.0 -->
      <g transform="translate(113.939531 258.676562) scale(0.1 -0.1)">
       <use xlink:href="#DejaVuSans-2212"/>
       <use xlink:href="#DejaVuSans-31" x="83.789062"/>
       <use xlink:href="#DejaVuSans-2e" x="147.412109"/>
       <use xlink:href="#DejaVuSans-30" x="179.199219"/>
      </g>
     </g>
    </g>
    <g id="xtick_4">
     <g id="line2d_7">
      <path d="M 163.040937 244.078125 
L 163.040937 22.318125 
" clip-path="url(#p9102ca8cbc)" style="fill: none; stroke: #b0b0b0; stroke-width: 0.8; stroke-linecap: square"/>
     </g>
     <g id="line2d_8">
      <g>
       <use xlink:href="#m57e8b98934" x="163.040937" y="244.078125" style="stroke: #000000; stroke-width: 0.8"/>
      </g>
     </g>
     <g id="text_4">
      <!-- −0.5 -->
      <g transform="translate(150.899531 258.676562) scale(0.1 -0.1)">
       <use xlink:href="#DejaVuSans-2212"/>
       <use xlink:href="#DejaVuSans-30" x="83.789062"/>
       <use xlink:href="#DejaVuSans-2e" x="147.412109"/>
       <use xlink:href="#DejaVuSans-35" x="179.199219"/>
      </g>
     </g>
    </g>
    <g id="xtick_5">
     <g id="line2d_9">
      <path d="M 200.000937 244.078125 
L 200.000937 22.318125 
" clip-path="url(#p9102ca8cbc)" style="fill: none; stroke: #b0b0b0; stroke-width: 0.8; stroke-linecap: square"/>
     </g>
     <g id="line2d_10">
      <g>
       <use xlink:href="#m57e8b98934" x="200.000937" y="244.078125" style="stroke: #000000; stroke-width: 0.8"/>
      </g>
     </g>
     <g id="text_5">
      <!-- 0.0 -->
      <g transform="translate(192.049375 258.676562) scale(0.1 -0.1)">
       <use xlink:href="#DejaVuSans-30"/>
       <use xlink:href="#DejaVuSans-2e" x="63.623047"/>
       <use xlink:href="#DejaVuSans-30" x="95.410156"/>
      </g>
     </g>
    </g>
    <g id="xtick_6">
     <g id="line2d_11">
      <path d="M 236.960938 244.078125 
L 236.960938 22.318125 
" clip-path="url(#p9102ca8cbc)" style="fill: none; stroke: #b0b0b0; stroke-width: 0.8; stroke-linecap: square"/>
     </g>
     <g id="line2d_12">
      <g>
       <use xlink:href="#m57e8b98934" x="236.960938" y="244.078125" style="stroke: #000000; stroke-width: 0.8"/>
      </g>
     </g>
     <g id="text_6">
      <!-- 0.5 -->
      <g transform="translate(229.009375 258.676562) scale(0.1 -0.1)">
       <use xlink:href="#DejaVuSans-30"/>
       <use xlink:href="#DejaVuSans-2e" x="63.623047"/>
       <use xlink:href="#DejaVuSans-35" x="95.410156"/>
      </g>
     </g>
    </g>
    <g id="xtick_7">
     <g id="line2d_13">
      <path d="M 273.920937 244.078125 
L 273.920937 22.318125 
" clip-path="url(#p9102ca8cbc)" style="fill: none; stroke: #b0b0b0; stroke-width: 0.8; stroke-linecap: square"/>
     </g>
     <g id="line2d_14">
      <g>
       <use xlink:href="#m57e8b98934" x="273.920937" y="244.078125" style="stroke: #000000; stroke-width: 0.8"/>
      </g>
     </g>
     <g id="text_7">
      <!-- 1.0 -->
      <g transform="translate(265.969375 258.676562) scale(0.1 -0.1)">
       <use xlink:href="#DejaVuSans-31"/>
       <use xlink:href="#DejaVuSans-2e" x="63.623047"/>
       <use xlink:href="#DejaVuSans-30" x="95.410156"/>
      </g>
     </g>
    </g>
    <g id="text_8">
     <!-- Real -->
     <g transform="translate(152.262031 272.354687) scale(0.1 -0.1)">
      <defs>
       <path id="DejaVuSans-52" d="M 2841 2188 
Q 3044 2119 3236 1894 
Q 3428 1669 3622 1275 
L 4263 0 
L 3584 0 
L 2988 1197 
Q 2756 1666 2539 1819 
Q 2322 1972 1947 1972 
L 1259 1972 
L 1259 0 
L 628 0 
L 628 4666 
L 2053 4666 
Q 2853 4666 3247 4331 
Q 3641 3997 3641 3322 
Q 3641 2881 3436 2590 
Q 3231 2300 2841 2188 
z
M 1259 4147 
L 1259 2491 
L 2053 2491 
Q 2509 2491 2742 2702 
Q 2975 2913 2975 3322 
Q 2975 3731 2742 3939 
Q 2509 4147 2053 4147 
L 1259 4147 
z
" transform="scale(0.015625)"/>
       <path id="DejaVuSans-65" d="M 3597 1894 
L 3597 1613 
L 953 1613 
Q 991 1019 1311 708 
Q 1631 397 2203 397 
Q 2534 397 2845 478 
Q 3156 559 3463 722 
L 3463 178 
Q 3153 47 2828 -22 
Q 2503 -91 2169 -91 
Q 1331 -91 842 396 
Q 353 884 353 1716 
Q 353 2575 817 3079 
Q 1281 3584 2069 3584 
Q 2775 3584 3186 3129 
Q 3597 2675 3597 1894 
z
M 3022 2063 
Q 3016 2534 2758 2815 
Q 2500 3097 2075 3097 
Q 1594 3097 1305 2825 
Q 1016 2553 972 2059 
L 3022 2063 
z
" transform="scale(0.015625)"/>
       <path id="DejaVuSans-61" d="M 2194 1759 
Q 1497 1759 1228 1600 
Q 959 1441 959 1056 
Q 959 750 1161 570 
Q 1363 391 1709 391 
Q 2188 391 2477 730 
Q 2766 1069 2766 1631 
L 2766 1759 
L 2194 1759 
z
M 3341 1997 
L 3341 0 
L 2766 0 
L 2766 531 
Q 2569 213 2275 61 
Q 1981 -91 1556 -91 
Q 1019 -91 701 211 
Q 384 513 384 1019 
Q 384 1609 779 1909 
Q 1175 2209 1959 2209 
L 2766 2209 
L 2766 2266 
Q 2766 2663 2505 2880 
Q 2244 3097 1772 3097 
Q 1472 3097 1187 3025 
Q 903 2953 641 2809 
L 641 3341 
Q 956 3463 1253 3523 
Q 1550 3584 1831 3584 
Q 2591 3584 2966 3190 
Q 3341 2797 3341 1997 
z
" transform="scale(0.015625)"/>
       <path id="DejaVuSans-6c" d="M 603 4863 
L 1178 4863 
L 1178 0 
L 603 0 
L 603 4863 
z
" transform="scale(0.015625)"/>
      </defs>
      <use xlink:href="#DejaVuSans-52"/>
      <use xlink:href="#DejaVuSans-65" x="64.982422"/>
      <use xlink:href="#DejaVuSans-61" x="126.505859"/>
      <use xlink:href="#DejaVuSans-6c" x="187.785156"/>
     </g>
    </g>
   </g>
   <g id="matplotlib.axis_2">
    <g id="ytick_1">
     <g id="line2d_15">
      <path d="M 52.160938 244.078125 
L 273.920937 244.078125 
" clip-path="url(#p9102ca8cbc)" style="fill: none; stroke: #b0b0b0; stroke-width: 0.8; stroke-linecap: square"/>
     </g>
     <g id="line2d_16">
      <defs>
       <path id="m9b3be0ae47" d="M 0 0 
L -3.5 0 
" style="stroke: #000000; stroke-width: 0.8"/>
      </defs>
      <g>
       <use xlink:href="#m9b3be0ae47" x="52.160938" y="244.078125" style="stroke: #000000; stroke-width: 0.8"/>
      </g>
     </g>
     <g id="text_9">
      <!-- −1.5 -->
      <g transform="translate(20.878125 247.877344) scale(0.1 -0.1)">
       <use xlink:href="#DejaVuSans-2212"/>
       <use xlink:href="#DejaVuSans-31" x="83.789062"/>
       <use xlink:href="#DejaVuSans-2e" x="147.412109"/>
       <use xlink:href="#DejaVuSans-35" x="179.199219"/>
      </g>
     </g>
    </g>
    <g id="ytick_2">
     <g id="line2d_17">
      <path d="M 52.160938 207.118125 
L 273.920937 207.118125 
" clip-path="url(#p9102ca8cbc)" style="fill: none; stroke: #b0b0b0; stroke-width: 0.8; stroke-linecap: square"/>
     </g>
     <g id="line2d_18">
      <g>
       <use xlink:href="#m9b3be0ae47" x="52.160938" y="207.118125" style="stroke: #000000; stroke-width: 0.8"/>
      </g>
     </g>
     <g id="text_10">
      <!-- −1.0 -->
      <g transform="translate(20.878125 210.917344) scale(0.1 -0.1)">
       <use xlink:href="#DejaVuSans-2212"/>
       <use xlink:href="#DejaVuSans-31" x="83.789062"/>
       <use xlink:href="#DejaVuSans-2e" x="147.412109"/>
       <use xlink:href="#DejaVuSans-30" x="179.199219"/>
      </g>
     </g>
    </g>
    <g id="ytick_3">
     <g id="line2d_19">
      <path d="M 52.160938 170.158125 
L 273.920937 170.158125 
" clip-path="url(#p9102ca8cbc)" style="fill: none; stroke: #b0b0b0; stroke-width: 0.8; stroke-linecap: square"/>
     </g>
     <g id="line2d_20">
      <g>
       <use xlink:href="#m9b3be0ae47" x="52.160938" y="170.158125" style="stroke: #000000; stroke-width: 0.8"/>
      </g>
     </g>
     <g id="text_11">
      <!-- −0.5 -->
      <g transform="translate(20.878125 173.957344) scale(0.1 -0.1)">
       <use xlink:href="#DejaVuSans-2212"/>
       <use xlink:href="#DejaVuSans-30" x="83.789062"/>
       <use xlink:href="#DejaVuSans-2e" x="147.412109"/>
       <use xlink:href="#DejaVuSans-35" x="179.199219"/>
      </g>
     </g>
    </g>
    <g id="ytick_4">
     <g id="line2d_21">
      <path d="M 52.160938 133.198125 
L 273.920937 133.198125 
" clip-path="url(#p9102ca8cbc)" style="fill: none; stroke: #b0b0b0; stroke-width: 0.8; stroke-linecap: square"/>
     </g>
     <g id="line2d_22">
      <g>
       <use xlink:href="#m9b3be0ae47" x="52.160938" y="133.198125" style="stroke: #000000; stroke-width: 0.8"/>
      </g>
     </g>
     <g id="text_12">
      <!-- 0.0 -->
      <g transform="translate(29.257813 136.997344) scale(0.1 -0.1)">
       <use xlink:href="#DejaVuSans-30"/>
       <use xlink:href="#DejaVuSans-2e" x="63.623047"/>
       <use xlink:href="#DejaVuSans-30" x="95.410156"/>
      </g>
     </g>
    </g>
    <g id="ytick_5">
     <g id="line2d_23">
      <path d="M 52.160938 96.238125 
L 273.920937 96.238125 
" clip-path="url(#p9102ca8cbc)" style="fill: none; stroke: #b0b0b0; stroke-width: 0.8; stroke-linecap: square"/>
     </g>
     <g id="line2d_24">
      <g>
       <use xlink:href="#m9b3be0ae47" x="52.160938" y="96.238125" style="stroke: #000000; stroke-width: 0.8"/>
      </g>
     </g>
     <g id="text_13">
      <!-- 0.5 -->
      <g transform="translate(29.257813 100.037344) scale(0.1 -0.1)">
       <use xlink:href="#DejaVuSans-30"/>
       <use xlink:href="#DejaVuSans-2e" x="63.623047"/>
       <use xlink:href="#DejaVuSans-35" x="95.410156"/>
      </g>
     </g>
    </g>
    <g id="ytick_6">
     <g id="line2d_25">
      <path d="M 52.160938 59.278125 
L 273.920937 59.278125 
" clip-path="url(#p9102ca8cbc)" style="fill: none; stroke: #b0b0b0; stroke-width: 0.8; stroke-linecap: square"/>
     </g>
     <g id="line2d_26">
      <g>
       <use xlink:href="#m9b3be0ae47" x="52.160938" y="59.278125" style="stroke: #000000; stroke-width: 0.8"/>
      </g>
     </g>
     <g id="text_14">
      <!-- 1.0 -->
      <g transform="translate(29.257813 63.077344) scale(0.1 -0.1)">
       <use xlink:href="#DejaVuSans-31"/>
       <use xlink:href="#DejaVuSans-2e" x="63.623047"/>
       <use xlink:href="#DejaVuSans-30" x="95.410156"/>
      </g>
     </g>
    </g>
    <g id="ytick_7">
     <g id="line2d_27">
      <path d="M 52.160938 22.318125 
L 273.920937 22.318125 
" clip-path="url(#p9102ca8cbc)" style="fill: none; stroke: #b0b0b0; stroke-width: 0.8; stroke-linecap: square"/>
     </g>
     <g id="line2d_28">
      <g>
       <use xlink:href="#m9b3be0ae47" x="52.160938" y="22.318125" style="stroke: #000000; stroke-width: 0.8"/>
      </g>
     </g>
     <g id="text_15">
      <!-- 1.5 -->
      <g transform="translate(29.257813 26.117344) scale(0.1 -0.1)">
       <use xlink:href="#DejaVuSans-31"/>
       <use xlink:href="#DejaVuSans-2e" x="63.623047"/>
       <use xlink:href="#DejaVuSans-35" x="95.410156"/>
      </g>
     </g>
    </g>
    <g id="text_16">
     <!-- Imaginary -->
     <g transform="translate(14.798438 158.418437) rotate(-90) scale(0.1 -0.1)">
      <defs>
       <path id="DejaVuSans-49" d="M 628 4666 
L 1259 4666 
L 1259 0 
L 628 0 
L 628 4666 
z
" transform="scale(0.015625)"/>
       <path id="DejaVuSans-6d" d="M 3328 2828 
Q 3544 3216 3844 3400 
Q 4144 3584 4550 3584 
Q 5097 3584 5394 3201 
Q 5691 2819 5691 2113 
L 5691 0 
L 5113 0 
L 5113 2094 
Q 5113 2597 4934 2840 
Q 4756 3084 4391 3084 
Q 3944 3084 3684 2787 
Q 3425 2491 3425 1978 
L 3425 0 
L 2847 0 
L 2847 2094 
Q 2847 2600 2669 2842 
Q 2491 3084 2119 3084 
Q 1678 3084 1418 2786 
Q 1159 2488 1159 1978 
L 1159 0 
L 581 0 
L 581 3500 
L 1159 3500 
L 1159 2956 
Q 1356 3278 1631 3431 
Q 1906 3584 2284 3584 
Q 2666 3584 2933 3390 
Q 3200 3197 3328 2828 
z
" transform="scale(0.015625)"/>
       <path id="DejaVuSans-67" d="M 2906 1791 
Q 2906 2416 2648 2759 
Q 2391 3103 1925 3103 
Q 1463 3103 1205 2759 
Q 947 2416 947 1791 
Q 947 1169 1205 825 
Q 1463 481 1925 481 
Q 2391 481 2648 825 
Q 2906 1169 2906 1791 
z
M 3481 434 
Q 3481 -459 3084 -895 
Q 2688 -1331 1869 -1331 
Q 1566 -1331 1297 -1286 
Q 1028 -1241 775 -1147 
L 775 -588 
Q 1028 -725 1275 -790 
Q 1522 -856 1778 -856 
Q 2344 -856 2625 -561 
Q 2906 -266 2906 331 
L 2906 616 
Q 2728 306 2450 153 
Q 2172 0 1784 0 
Q 1141 0 747 490 
Q 353 981 353 1791 
Q 353 2603 747 3093 
Q 1141 3584 1784 3584 
Q 2172 3584 2450 3431 
Q 2728 3278 2906 2969 
L 2906 3500 
L 3481 3500 
L 3481 434 
z
" transform="scale(0.015625)"/>
       <path id="DejaVuSans-69" d="M 603 3500 
L 1178 3500 
L 1178 0 
L 603 0 
L 603 3500 
z
M 603 4863 
L 1178 4863 
L 1178 4134 
L 603 4134 
L 603 4863 
z
" transform="scale(0.015625)"/>
       <path id="DejaVuSans-6e" d="M 3513 2113 
L 3513 0 
L 2938 0 
L 2938 2094 
Q 2938 2591 2744 2837 
Q 2550 3084 2163 3084 
Q 1697 3084 1428 2787 
Q 1159 2491 1159 1978 
L 1159 0 
L 581 0 
L 581 3500 
L 1159 3500 
L 1159 2956 
Q 1366 3272 1645 3428 
Q 1925 3584 2291 3584 
Q 2894 3584 3203 3211 
Q 3513 2838 3513 2113 
z
" transform="scale(0.015625)"/>
       <path id="DejaVuSans-72" d="M 2631 2963 
Q 2534 3019 2420 3045 
Q 2306 3072 2169 3072 
Q 1681 3072 1420 2755 
Q 1159 2438 1159 1844 
L 1159 0 
L 581 0 
L 581 3500 
L 1159 3500 
L 1159 2956 
Q 1341 3275 1631 3429 
Q 1922 3584 2338 3584 
Q 2397 3584 2469 3576 
Q 2541 3569 2628 3553 
L 2631 2963 
z
" transform="scale(0.015625)"/>
       <path id="DejaVuSans-79" d="M 2059 -325 
Q 1816 -950 1584 -1140 
Q 1353 -1331 966 -1331 
L 506 -1331 
L 506 -850 
L 844 -850 
Q 1081 -850 1212 -737 
Q 1344 -625 1503 -206 
L 1606 56 
L 191 3500 
L 800 3500 
L 1894 763 
L 2988 3500 
L 3597 3500 
L 2059 -325 
z
" transform="scale(0.015625)"/>
      </defs>
      <use xlink:href="#DejaVuSans-49"/>
      <use xlink:href="#DejaVuSans-6d" x="29.492188"/>
      <use xlink:href="#DejaVuSans-61" x="126.904297"/>
      <use xlink:href="#DejaVuSans-67" x="188.183594"/>
      <use xlink:href="#DejaVuSans-69" x="251.660156"/>
      <use xlink:href="#DejaVuSans-6e" x="279.443359"/>
      <use xlink:href="#DejaVuSans-61" x="342.822266"/>
      <use xlink:href="#DejaVuSans-72" x="404.101562"/>
      <use xlink:href="#DejaVuSans-79" x="445.214844"/>
     </g>
    </g>
   </g>
   <g id="line2d_29">
    <path d="M -1 168.209412 
L 3.293265 170.373188 
L 8.538994 172.741148 
L 12.904259 174.489994 
L 17.420336 176.059342 
L 20.818155 177.254694 
L 23.468871 178.32246 
L 29.18788 181.054734 
L 34.599207 183.592159 
L 37.786507 184.743248 
L 41.895222 185.769905 
L 45.884267 186.485613 
L 52.051457 187.107153 
L 53.829253 187.361451 
L 59.917232 188.336444 
L 67.016686 189.016406 
L 70.446863 189.087167 
L 74.127097 189.121075 
L 77.05438 189.095164 
L 89.793157 188.531062 
L 93.48506 188.18935 
L 99.25157 187.530934 
L 106.629489 186.405566 
L 110.107183 185.729198 
L 114.176378 184.907623 
L 116.862159 184.256925 
L 120.226081 183.445735 
L 127.28345 181.56131 
L 129.068019 180.876678 
L 130.719685 180.355673 
L 134.965808 178.854263 
L 140.400825 176.644973 
L 147.773955 173.104685 
L 152.233234 170.302425 
L 154.632274 168.445432 
L 155.506217 167.747722 
L 156.638666 166.761721 
L 158.203779 165.322761 
L 163.480495 161.483886 
L 164.855051 160.402376 
L 168.847263 157.132408 
L 169.866638 156.404511 
L 171.711311 154.431473 
L 172.660983 153.423336 
L 173.72101 151.911509 
L 176.133564 148.965636 
L 177.659171 146.882845 
L 183.16888 141.246038 
L 185.559775 139.396287 
L 191.58288 136.058318 
L 192.228964 135.700207 
L 194.502314 134.623281 
L 196.841969 133.913537 
L 199.741711 133.593784 
L 200.401998 133.629715 
L 202.664724 134.306621 
L 202.858165 134.390875 
L 205.436978 135.938989 
L 205.708833 136.107549 
L 207.932211 137.862681 
L 208.222874 138.131165 
L 209.374023 139.331079 
L 210.659408 140.947675 
L 211.811172 142.164333 
L 213.921392 144.799499 
L 218.204337 151.611251 
L 219.318049 153.835887 
L 222.318602 161.107556 
L 223.015302 163.413925 
L 224.070961 167.843423 
L 224.396007 169.924092 
L 224.970541 176.285813 
L 225.704221 185.488542 
L 225.688892 188.857365 
L 225.460565 190.807437 
L 225.105221 192.838838 
L 224.611017 194.948071 
L 223.947328 197.141316 
L 223.004978 199.42665 
L 221.846886 201.735901 
L 220.474695 204.059796 
L 218.868593 206.391446 
L 216.914259 208.640436 
L 214.761061 210.761135 
L 212.414165 212.755233 
L 209.842469 214.628558 
L 207.000138 216.267405 
L 204.030894 217.704331 
L 200.943929 218.94019 
L 197.719577 219.960098 
L 194.389536 220.639671 
L 191.015225 221.074129 
L 187.616822 221.267016 
L 184.219586 221.197305 
L 180.865302 220.800165 
L 177.581605 220.203152 
L 174.387755 219.417216 
L 171.312765 218.438658 
L 168.374036 217.20397 
L 165.565534 215.812877 
L 162.900511 214.287137 
L 160.394804 212.648676 
L 158.076998 210.897484 
L 155.891719 209.06617 
L 153.849171 207.16522 
L 151.959688 205.206435 
L 148.785522 201.23357 
L 146.083307 197.250063 
L 144.946248 195.252335 
L 143.058839 191.236249 
L 141.551705 187.426022 
L 140.41921 183.826759 
L 139.55735 180.357262 
L 138.746467 175.559552 
L 138.526887 172.60045 
L 138.369961 166.143833 
L 138.748064 161.706098 
L 139.373553 157.889107 
L 139.954416 155.352512 
L 142.005447 149.116147 
L 143.224432 146.43793 
L 144.330724 144.582078 
L 145.529493 142.990242 
L 149.197043 138.784649 
L 150.227762 137.908329 
L 151.661461 136.469469 
L 154.908835 133.682963 
L 155.506475 133.347654 
L 156.769518 132.410157 
L 158.294088 131.467659 
L 162.166962 129.278083 
L 167.801853 126.999529 
L 170.192709 126.292776 
L 171.338208 126.00993 
L 174.428662 125.420278 
L 180.819308 124.893917 
L 182.487377 124.939142 
L 183.116249 124.960816 
L 183.576605 124.99537 
L 189.952355 125.974056 
L 190.438951 126.122357 
L 190.72542 126.197875 
L 191.529159 126.411745 
L 192.984518 126.889602 
L 193.291711 126.982065 
L 193.453894 127.036013 
L 193.705829 127.135955 
L 193.956935 127.241499 
L 196.562787 128.284607 
L 196.770498 128.282846 
L 197.711259 129.014484 
L 197.701656 129.02087 
L 197.750796 129.041899 
L 197.779639 129.097888 
L 197.932543 129.26498 
L 198.061097 129.38666 
L 198.131866 129.466793 
L 198.103936 129.393094 
L 198.149443 129.463019 
L 199.906387 130.89892 
L 199.887962 130.886525 
L 199.904975 130.936914 
L 199.905324 130.885203 
L 199.97251 130.954617 
L 200.03679 131.06227 
L 200.24773 131.249784 
L 200.220206 131.254384 
L 200.198301 131.262321 
L 200.301254 131.330487 
L 200.292032 131.307534 
L 200.347356 131.454247 
L 200.358964 131.438317 
L 200.629648 131.826991 
L 200.617729 131.803648 
L 200.632579 131.920908 
L 200.645106 131.920471 
L 200.631077 131.937771 
L 200.722121 132.068776 
L 200.739926 132.03732 
L 200.75405 132.182458 
L 200.818271 132.243134 
L 200.743083 132.220696 
L 200.804364 132.27125 
L 200.909623 132.654325 
L 200.795896 132.270878 
L 200.909623 132.654325 
" clip-path="url(#p9102ca8cbc)" style="fill: none; stroke: #0000ff; stroke-width: 1.5; stroke-linecap: square"/>
   </g>
   <g id="line2d_30">
    <path d="M -1 163.995693 
L 2.982131 166.035236 
L 8.10021 168.397535 
L 12.397271 170.150285 
L 16.839626 171.722722 
L 19.517215 172.700858 
L 22.620592 173.983091 
L 27.409579 176.340845 
L 33.79283 179.423092 
L 36.546881 180.447873 
L 40.60954 181.522455 
L 44.560744 182.288187 
L 50.678821 182.983886 
L 52.439371 183.258258 
L 58.641658 184.328221 
L 65.849218 185.100628 
L 69.068111 185.193124 
L 72.221089 185.263457 
L 75.294246 185.298271 
L 86.823628 184.970912 
L 92.785467 184.545043 
L 99.651133 183.784018 
L 108.662163 182.360637 
L 111.828766 181.765414 
L 114.346088 181.243794 
L 126.503292 178.137083 
L 128.380211 177.521106 
L 131.186633 176.630015 
L 134.251997 175.515355 
L 143.077108 171.84354 
L 145.647817 170.509174 
L 148.043103 169.067674 
L 149.247547 168.298909 
L 150.589247 167.462229 
L 152.471737 166.076415 
L 153.758799 165.030102 
L 154.828999 164.111805 
L 156.383082 162.72611 
L 161.781459 158.956913 
L 163.148658 157.92541 
L 166.351845 155.412077 
L 168.56276 153.663905 
L 172.092124 149.747111 
L 173.92015 147.640948 
L 174.823488 146.634467 
L 177.477926 143.626143 
L 177.946417 143.115225 
L 178.87261 142.227108 
L 180.514295 140.640417 
L 185.104382 137.340684 
L 186.588184 136.632952 
L 188.334418 135.909188 
L 188.984115 135.591101 
L 192.354774 134.113264 
L 193.233753 133.795685 
L 193.67247 133.655774 
L 195.850275 133.211509 
L 196.60537 133.151868 
L 198.385701 133.227795 
L 199.782845 133.527633 
L 200.28299 133.732965 
L 200.811972 134.056451 
L 201.620972 134.789277 
L 202.083784 135.469995 
L 202.628959 137.140249 
L 202.624389 138.205915 
L 202.549919 138.549336 
L 202.45721 138.879013 
L 202.235112 139.392858 
L 201.981178 139.839752 
L 201.190364 140.647039 
L 200.525251 140.883527 
L 200.043192 141.026647 
L 199.736432 141.099843 
L 199.072771 141.111524 
L 197.970746 140.716216 
L 196.95523 139.558212 
L 196.757416 139.015133 
L 196.67018 138.104599 
L 196.89464 137.047894 
L 197.294402 136.296111 
L 197.893916 135.712739 
L 198.897903 135.096674 
L 199.591772 134.889132 
L 200.457269 134.872596 
L 201.163739 135.049773 
L 201.851889 135.406754 
L 202.46158 135.927082 
L 202.95379 136.575334 
L 203.391093 137.562797 
L 203.582278 138.600451 
L 203.560528 139.618553 
L 203.305238 140.803633 
L 202.772341 142.073852 
L 201.868996 143.512277 
L 200.719743 144.839988 
L 199.513833 145.903614 
L 198.459822 146.657848 
L 197.470564 147.178203 
L 196.32111 147.533395 
L 194.827442 147.695929 
L 193.686458 147.631076 
L 192.20172 147.2971 
L 191.345588 146.972729 
L 190.589163 146.545746 
L 188.570454 144.695721 
L 187.783962 143.506381 
L 187.187298 142.028366 
L 186.907195 140.730588 
L 186.866453 138.447968 
L 187.381217 136.347847 
L 188.335645 134.464857 
L 189.370958 133.127707 
L 189.560134 132.94464 
L 190.67756 131.963019 
L 191.007758 131.735972 
L 191.415884 131.46752 
L 191.712756 131.288191 
L 192.023085 131.120226 
L 192.330553 130.962967 
L 192.666607 130.816369 
L 193.164138 130.616486 
L 193.994567 130.322088 
L 194.148028 130.295452 
L 194.411429 130.223463 
L 194.621769 130.160896 
L 195.214398 130.063912 
L 195.511217 129.937734 
L 196.661993 130.082271 
L 196.81802 130.16565 
L 196.811854 130.148229 
L 196.810626 130.136773 
L 196.905988 130.2024 
L 196.924301 130.185143 
L 196.994803 130.21569 
L 197.028422 130.200374 
L 197.357148 130.282697 
L 197.695224 130.344287 
L 197.730743 130.380339 
L 197.71115 130.337032 
L 197.80551 130.358609 
L 197.882527 130.372685 
L 197.833985 130.39395 
L 197.893768 130.377244 
L 198.277651 130.482201 
L 198.275227 130.471127 
L 198.376845 130.511496 
L 198.384641 130.497102 
L 198.724246 130.612222 
L 199.002215 130.724271 
L 199.287574 130.887386 
L 199.261383 130.861773 
L 199.429834 130.97265 
L 199.42432 130.961387 
L 199.706632 131.146095 
L 199.687778 131.134095 
L 199.872004 131.23638 
L 199.847995 131.249538 
L 199.832513 131.272905 
L 199.910958 131.268004 
L 199.920479 131.32923 
L 199.973578 131.314532 
L 200.00592 131.371028 
L 200.262725 131.606843 
L 200.249217 131.605365 
L 200.341303 131.671594 
L 200.247872 131.622288 
L 200.324353 131.691852 
L 200.41134 131.817433 
L 200.348729 131.688377 
L 200.435346 131.798955 
L 200.530433 131.925253 
L 200.424137 131.813404 
L 200.5213 131.916768 
L 200.562882 132.038559 
L 200.534315 131.918205 
L 200.578382 132.016251 
L 200.841646 132.565484 
L 200.579927 132.009281 
L 200.841646 132.565484 
" clip-path="url(#p9102ca8cbc)" style="fill: none; stroke: #008000; stroke-width: 1.5; stroke-linecap: square"/>
   </g>
   <g id="line2d_31">
    <path d="M -1 156.381151 
L 3.514714 159.058093 
L 8.894469 161.941996 
L 13.431248 164.134306 
L 18.316336 166.232324 
L 20.53848 167.239565 
L 23.910238 168.910964 
L 28.713061 171.683586 
L 35.392305 175.515846 
L 38.746883 177.088513 
L 43.603116 178.906395 
L 48.613891 180.513922 
L 53.52029 182.071909 
L 55.977663 183.010518 
L 60.622121 185.311851 
L 64.368661 187.440439 
L 67.664166 189.537681 
L 70.41149 191.519099 
L 73.57132 194.206036 
L 76.409423 196.896967 
L 79.239178 199.842816 
L 82.700886 203.796255 
L 86.169828 208.137955 
L 89.381022 212.485118 
L 93.357098 218.299113 
L 96.603651 223.405958 
L 100.478611 229.999877 
L 105.243998 238.836549 
L 108.058919 244.480775 
L 111.227903 251.26894 
L 114.806323 259.578659 
L 118.84466 269.968608 
L 123.137035 282.634375 
M -1 115.344563 
L 4.359217 118.750214 
L 11.366938 123.485358 
L 21.941696 131.11579 
L 29.556244 136.966929 
L 37.716257 143.538899 
L 59.485281 161.373195 
L 63.704786 164.484745 
L 67.020324 166.657746 
L 70.985371 168.986267 
L 74.026514 170.469255 
L 76.724913 171.555882 
L 79.978521 172.656043 
L 83.810708 173.650667 
L 86.951333 174.184943 
L 90.639673 174.618545 
L 94.430641 174.85367 
L 98.667415 174.893976 
L 102.654778 174.811447 
L 105.884725 174.545112 
L 116.851595 173.15199 
L 124.076445 171.794311 
L 126.495403 171.126012 
L 129.795658 170.303982 
L 140.345016 167.754269 
L 145.831491 166.713896 
L 151.11413 165.939247 
L 155.903129 165.42385 
L 161.161415 165.054436 
L 166.037632 164.89151 
L 172.742715 164.946388 
L 177.138562 165.159852 
L 182.550761 165.610443 
L 189.368222 166.47574 
L 198.19302 168.098236 
L 209.990021 171.186392 
L 226.339059 177.339951 
L 249.707357 190.576187 
L 282.304548 222.118522 
L 290.0725 244.004469 
M 30.026756 282.634375 
L 35.219301 254.583467 
L 50.352593 226.400652 
L 62.969342 210.653569 
L 72.790479 201.003358 
L 80.448135 194.634647 
L 86.519478 190.181987 
L 91.425746 186.924635 
L 95.462611 184.45388 
L 101.701392 180.978893 
L 108.163357 177.782216 
L 113.806272 175.295895 
L 119.779834 172.939338 
L 126.248132 170.625252 
L 137.2001 166.814821 
L 139.955703 165.581025 
L 142.720807 164.157331 
L 144.701339 162.978227 
L 146.089733 162.152698 
L 148.14414 160.721918 
L 154.363078 155.698888 
L 158.931152 152.440508 
L 161.632882 149.989852 
L 162.801506 148.882113 
L 163.696304 148.029503 
L 165.569705 145.658739 
L 166.413758 144.21653 
L 167.506139 142.166519 
L 168.201594 140.439291 
L 168.806935 138.470553 
L 169.609524 135.154255 
L 170.094968 132.392736 
L 171.117306 124.977277 
L 173.839306 105.98277 
L 175.077063 99.283215 
L 176.360945 93.209008 
L 178.340779 85.106285 
L 179.766504 79.949964 
L 181.646693 73.759725 
L 184.209758 66.207016 
L 187.833458 56.809163 
L 193.187896 44.842685 
L 201.551279 29.204841 
L 215.5766 8.23105 
L 223.926463 -1 
M 226.028621 282.634375 
L 209.581147 261.95598 
L 198.194451 243.244614 
L 191.219554 229.159479 
L 186.665978 218.26995 
L 183.54092 209.636735 
L 181.310496 202.642192 
L 179.667032 196.868034 
L 177.46319 187.903929 
L 176.096804 181.270514 
L 174.86373 174.022136 
L 173.984592 167.356126 
L 173.384293 160.811577 
L 173.05664 154.314121 
L 173.039757 149.680766 
L 173.207454 145.90784 
L 173.600109 142.197495 
L 175.190686 131.35085 
L 175.728089 124.946474 
L 176.679607 110.877005 
L 177.3856 103.135804 
L 178.186627 96.32459 
L 179.04628 90.268918 
L 180.376128 82.342345 
L 181.331872 77.382088 
L 182.594639 71.51433 
L 184.304675 64.469486 
L 186.689206 55.863868 
L 190.132976 45.140104 
L 195.329955 31.450346 
L 203.616149 13.491988 
L 212.091965 -1 
M 234.908284 282.634375 
L 228.549409 275.575139 
L 214.283185 254.996005 
L 205.402128 239.421311 
L 199.497152 227.349356 
L 195.375517 217.761171 
L 192.383929 209.981998 
L 190.141991 203.554062 
L 187.0561 193.557838 
L 185.077692 186.145839 
L 183.223488 178.048797 
L 181.817816 170.616429 
L 180.853472 164.351432 
L 180.210748 158.590297 
L 179.816136 152.690319 
L 179.763501 148.34479 
L 179.932326 145.29666 
L 180.361833 142.218625 
L 181.435229 138.126066 
L 183.44099 131.977047 
L 183.953961 129.62457 
L 184.217523 127.385524 
L 184.368845 122.568454 
L 184.146272 94.377162 
L 184.462831 86.384892 
L 184.932747 79.185759 
L 185.811286 69.643267 
L 186.533543 63.600097 
L 187.568889 56.383667 
L 189.1061 47.614736 
L 191.411429 36.766688 
L 194.984571 23.040632 
L 200.774432 5.203242 
L 203.347994 -1 
M 255.503799 282.634375 
L 247.274374 273.779935 
L 232.929394 254.628144 
L 223.497199 239.871826 
L 216.951334 228.234224 
L 212.20592 218.860915 
L 208.643001 211.171847 
L 205.889598 204.765934 
L 201.954103 194.703401 
L 199.323119 187.168152 
L 196.732723 178.86005 
L 194.651632 171.171057 
L 192.894682 163.659356 
L 191.526845 156.830341 
L 190.532972 150.309098 
L 190.175127 145.686331 
L 190.28729 142.03666 
L 190.671732 140.003156 
L 191.214799 138.352775 
L 191.826805 137.151163 
L 192.577267 136.131531 
L 193.619712 135.141781 
L 194.643349 134.479415 
L 197.291835 133.561023 
L 198.891815 133.46197 
L 200.308193 133.706937 
L 201.646537 134.505649 
L 202.486494 135.532754 
L 203.108886 137.39342 
L 203.142988 137.79724 
L 203.058787 138.695613 
L 202.985112 138.994718 
L 202.793155 139.496364 
L 201.881517 140.825548 
L 201.057443 141.226892 
L 199.651845 141.568166 
L 198.830797 141.431083 
L 197.533626 140.583022 
L 197.109474 139.964232 
L 196.80429 138.98478 
L 196.772492 138.46466 
L 196.921283 137.473919 
L 197.32402 136.588988 
L 197.921533 135.944925 
L 198.94187 135.24614 
L 199.65862 134.992627 
L 200.565188 134.930902 
L 201.314915 135.080701 
L 202.054518 135.420179 
L 202.720022 135.935114 
L 203.268653 136.590296 
L 203.776457 137.604215 
L 204.028338 138.68326 
L 204.055589 139.752503 
L 203.84561 141.008576 
L 203.3479 142.367643 
L 202.589021 143.74445 
L 201.457858 145.224841 
L 200.107651 146.543504 
L 199.167865 147.2947 
L 197.879105 148.039338 
L 196.957009 148.371083 
L 195.394815 148.633343 
L 193.927957 148.609741 
L 193.129077 148.507191 
L 191.08871 147.83828 
L 189.33554 146.585337 
L 188.411432 145.622969 
L 187.894758 144.952306 
L 187.508901 144.26366 
L 187.050082 143.289221 
L 186.680741 142.119867 
L 186.57595 141.48951 
L 186.533225 141.234155 
L 186.438691 139.838669 
L 186.93567 136.900473 
L 187.176516 136.254446 
L 188.741912 133.669147 
L 188.911874 133.477818 
L 189.116143 133.257696 
L 189.68685 132.663856 
L 190.085344 132.326261 
L 190.333489 132.119928 
L 191.165944 131.531466 
L 191.450711 131.380146 
L 191.734285 131.212595 
L 191.843948 131.142198 
L 192.328361 130.888322 
L 193.387239 130.45524 
L 193.472268 130.443972 
L 193.484564 130.430956 
L 193.707549 130.333111 
L 193.831884 130.33085 
L 193.840367 130.304735 
L 194.191067 130.214665 
L 194.6805 130.104877 
L 194.670935 130.12181 
L 194.815694 130.087587 
L 195.785289 129.841316 
L 196.005332 129.890919 
L 196.16616 129.934512 
L 196.367096 130.01084 
L 197.290503 130.248783 
L 197.414829 130.251475 
L 197.413648 130.266453 
L 198.721776 130.55937 
L 198.699772 130.582816 
L 198.774981 130.533587 
L 198.827444 130.603031 
L 199.116674 130.768035 
L 199.10056 130.730495 
L 199.262643 130.837132 
L 199.262734 130.828491 
L 200.070837 131.374888 
L 200.054394 131.346506 
L 200.126734 131.450526 
L 200.140087 131.439249 
L 200.292073 131.547749 
L 200.326703 131.656696 
L 200.354079 131.653055 
L 200.530024 131.837304 
L 200.51565 131.844219 
L 200.553688 131.953995 
L 200.584866 131.897491 
L 200.708879 132.217593 
L 200.736487 132.206769 
L 200.872864 132.526578 
L 200.739237 132.200327 
L 200.872864 132.526578 
" clip-path="url(#p9102ca8cbc)" style="fill: none; stroke: #ff0000; stroke-width: 1.5; stroke-linecap: square"/>
   </g>
   <g id="line2d_32">
    <path d="M 200.000937 207.118125 
L 190.548258 206.511243 
L 181.250791 204.700561 
L 172.2612 201.715812 
L 163.727096 197.606004 
L 155.788607 192.43862 
L 148.576083 186.298509 
L 142.207954 179.286491 
L 136.788784 171.517704 
L 132.407556 163.11971 
L 129.13621 154.230404 
L 127.02846 144.995749 
L 126.118916 135.567378 
L 126.422513 126.100103 
L 127.934266 116.749378 
L 130.629352 107.66874 
L 134.463517 99.007295 
L 139.373804 90.907261 
L 145.279588 83.501643 
L 152.083895 76.91204 
L 159.674998 71.246652 
L 167.928252 66.598506 
L 176.708138 63.043924 
L 185.870492 60.641272 
L 195.264867 59.430002 
L 204.737008 59.430002 
L 214.131383 60.641272 
L 223.293737 63.043924 
L 232.073623 66.598506 
L 240.326877 71.246652 
L 247.91798 76.91204 
L 254.722287 83.501643 
L 260.628071 90.907261 
L 265.538358 99.007295 
L 269.372523 107.66874 
L 272.067609 116.749378 
L 273.579362 126.100103 
L 273.882959 135.567378 
L 272.973415 144.995749 
L 270.865665 154.230404 
L 267.594319 163.11971 
L 263.213091 171.517704 
L 257.793921 179.286491 
L 251.425792 186.298509 
L 244.213268 192.43862 
L 236.274779 197.606004 
L 227.740675 201.715812 
L 218.751084 204.700561 
L 209.453617 206.511243 
L 200.000937 207.118125 
" clip-path="url(#p9102ca8cbc)" style="fill: none; stroke: #808080; stroke-width: 0.5; stroke-linecap: square"/>
   </g>
   <g id="line2d_33">
    <path d="M 126.080938 170.158125 
L 121.354598 169.854684 
L 116.705864 168.949343 
L 112.211069 167.456968 
L 107.944017 165.402064 
L 103.974772 162.818372 
L 100.36851 159.748317 
L 97.184446 156.242308 
L 94.474861 152.357914 
L 92.284247 148.158917 
L 90.648574 143.714265 
L 89.594699 139.096937 
L 89.139927 134.382751 
L 89.291725 129.649114 
L 90.047602 124.973751 
L 91.395145 120.433433 
L 93.312227 116.10271 
L 95.767371 112.052693 
L 98.720263 108.349884 
L 102.122416 105.055082 
L 105.917968 102.222389 
L 110.044595 99.898316 
L 114.434538 98.121025 
L 119.015715 96.919699 
L 123.712902 96.314063 
L 128.448973 96.314063 
L 133.14616 96.919699 
L 137.727337 98.121025 
L 142.11728 99.898316 
L 146.243907 102.222389 
L 150.039459 105.055082 
L 153.441612 108.349884 
L 156.394504 112.052693 
L 158.849648 116.10271 
L 160.76673 120.433433 
L 162.114273 124.973751 
L 162.87015 129.649114 
L 163.021948 134.382751 
L 162.567176 139.096937 
L 161.513301 143.714265 
L 159.877628 148.158917 
L 157.687014 152.357914 
L 154.977429 156.242308 
L 151.793365 159.748317 
L 148.187103 162.818372 
L 144.217858 165.402064 
L 139.950806 167.456968 
L 135.456011 168.949343 
L 130.807277 169.854684 
L 126.080938 170.158125 
" clip-path="url(#p9102ca8cbc)" style="fill: none; stroke: #808080; stroke-width: 0.5; stroke-linecap: square"/>
   </g>
   <g id="line2d_34">
    <path d="M 126.080938 133.198125 
" clip-path="url(#p9102ca8cbc)" style="fill: none; stroke: #ff0000; stroke-width: 1.5; stroke-linecap: square"/>
    <defs>
     <path id="mc7b7828b21" d="M -3 3 
L 3 -3 
M -3 -3 
L 3 3 
" style="stroke: #ff0000"/>
    </defs>
    <g clip-path="url(#p9102ca8cbc)">
     <use xlink:href="#mc7b7828b21" x="126.080938" y="133.198125" style="fill: #ff0000; stroke: #ff0000"/>
    </g>
   </g>
   <g id="patch_3">
    <path d="M 52.160938 244.078125 
L 52.160938 22.318125 
" style="fill: none; stroke: #000000; stroke-width: 0.8; stroke-linejoin: miter; stroke-linecap: square"/>
   </g>
   <g id="patch_4">
    <path d="M 273.920937 244.078125 
L 273.920937 22.318125 
" style="fill: none; stroke: #000000; stroke-width: 0.8; stroke-linejoin: miter; stroke-linecap: square"/>
   </g>
   <g id="patch_5">
    <path d="M 52.160938 244.078125 
L 273.920937 244.078125 
" style="fill: none; stroke: #000000; stroke-width: 0.8; stroke-linejoin: miter; stroke-linecap: square"/>
   </g>
   <g id="patch_6">
    <path d="M 52.160938 22.318125 
L 273.920937 22.318125 
" style="fill: none; stroke: #000000; stroke-width: 0.8; stroke-linejoin: miter; stroke-linecap: square"/>
   </g>
   <g id="text_17">
    <!-- Nyquist diagram -->
    <g transform="translate(113.388125 16.318125) scale(0.12 -0.12)">
     <defs>
      <path id="DejaVuSans-4e" d="M 628 4666 
L 1478 4666 
L 3547 763 
L 3547 4666 
L 4159 4666 
L 4159 0 
L 3309 0 
L 1241 3903 
L 1241 0 
L 628 0 
L 628 4666 
z
" transform="scale(0.015625)"/>
      <path id="DejaVuSans-71" d="M 947 1747 
Q 947 1113 1208 752 
Q 1469 391 1925 391 
Q 2381 391 2643 752 
Q 2906 1113 2906 1747 
Q 2906 2381 2643 2742 
Q 2381 3103 1925 3103 
Q 1469 3103 1208 2742 
Q 947 2381 947 1747 
z
M 2906 525 
Q 2725 213 2448 61 
Q 2172 -91 1784 -91 
Q 1150 -91 751 415 
Q 353 922 353 1747 
Q 353 2572 751 3078 
Q 1150 3584 1784 3584 
Q 2172 3584 2448 3432 
Q 2725 3281 2906 2969 
L 2906 3500 
L 3481 3500 
L 3481 -1331 
L 2906 -1331 
L 2906 525 
z
" transform="scale(0.015625)"/>
      <path id="DejaVuSans-75" d="M 544 1381 
L 544 3500 
L 1119 3500 
L 1119 1403 
Q 1119 906 1312 657 
Q 1506 409 1894 409 
Q 2359 409 2629 706 
Q 2900 1003 2900 1516 
L 2900 3500 
L 3475 3500 
L 3475 0 
L 2900 0 
L 2900 538 
Q 2691 219 2414 64 
Q 2138 -91 1772 -91 
Q 1169 -91 856 284 
Q 544 659 544 1381 
z
M 1991 3584 
L 1991 3584 
z
" transform="scale(0.015625)"/>
      <path id="DejaVuSans-73" d="M 2834 3397 
L 2834 2853 
Q 2591 2978 2328 3040 
Q 2066 3103 1784 3103 
Q 1356 3103 1142 2972 
Q 928 2841 928 2578 
Q 928 2378 1081 2264 
Q 1234 2150 1697 2047 
L 1894 2003 
Q 2506 1872 2764 1633 
Q 3022 1394 3022 966 
Q 3022 478 2636 193 
Q 2250 -91 1575 -91 
Q 1294 -91 989 -36 
Q 684 19 347 128 
L 347 722 
Q 666 556 975 473 
Q 1284 391 1588 391 
Q 1994 391 2212 530 
Q 2431 669 2431 922 
Q 2431 1156 2273 1281 
Q 2116 1406 1581 1522 
L 1381 1569 
Q 847 1681 609 1914 
Q 372 2147 372 2553 
Q 372 3047 722 3315 
Q 1072 3584 1716 3584 
Q 2034 3584 2315 3537 
Q 2597 3491 2834 3397 
z
" transform="scale(0.015625)"/>
      <path id="DejaVuSans-74" d="M 1172 4494 
L 1172 3500 
L 2356 3500 
L 2356 3053 
L 1172 3053 
L 1172 1153 
Q 1172 725 1289 603 
Q 1406 481 1766 481 
L 2356 481 
L 2356 0 
L 1766 0 
Q 1100 0 847 248 
Q 594 497 594 1153 
L 594 3053 
L 172 3053 
L 172 3500 
L 594 3500 
L 594 4494 
L 1172 4494 
z
" transform="scale(0.015625)"/>
      <path id="DejaVuSans-20" transform="scale(0.015625)"/>
      <path id="DejaVuSans-64" d="M 2906 2969 
L 2906 4863 
L 3481 4863 
L 3481 0 
L 2906 0 
L 2906 525 
Q 2725 213 2448 61 
Q 2172 -91 1784 -91 
Q 1150 -91 751 415 
Q 353 922 353 1747 
Q 353 2572 751 3078 
Q 1150 3584 1784 3584 
Q 2172 3584 2448 3432 
Q 2725 3281 2906 2969 
z
M 947 1747 
Q 947 1113 1208 752 
Q 1469 391 1925 391 
Q 2381 391 2643 752 
Q 2906 1113 2906 1747 
Q 2906 2381 2643 2742 
Q 2381 3103 1925 3103 
Q 1469 3103 1208 2742 
Q 947 2381 947 1747 
z
" transform="scale(0.015625)"/>
     </defs>
     <use xlink:href="#DejaVuSans-4e"/>
     <use xlink:href="#DejaVuSans-79" x="74.804688"/>
     <use xlink:href="#DejaVuSans-71" x="133.984375"/>
     <use xlink:href="#DejaVuSans-75" x="197.460938"/>
     <use xlink:href="#DejaVuSans-69" x="260.839844"/>
     <use xlink:href="#DejaVuSans-73" x="288.623047"/>
     <use xlink:href="#DejaVuSans-74" x="340.722656"/>
     <use xlink:href="#DejaVuSans-20" x="379.931641"/>
     <use xlink:href="#DejaVuSans-64" x="411.71875"/>
     <use xlink:href="#DejaVuSans-69" x="475.195312"/>
     <use xlink:href="#DejaVuSans-61" x="502.978516"/>
     <use xlink:href="#DejaVuSans-67" x="564.257812"/>
     <use xlink:href="#DejaVuSans-72" x="627.734375"/>
     <use xlink:href="#DejaVuSans-61" x="668.847656"/>
     <use xlink:href="#DejaVuSans-6d" x="730.126953"/>
    </g>
   </g>
   <g id="legend_1">
    <g id="patch_7">
     <path d="M 59.160938 74.3525 
L 148.946875 74.3525 
Q 150.946875 74.3525 150.946875 72.3525 
L 150.946875 29.318125 
Q 150.946875 27.318125 148.946875 27.318125 
L 59.160938 27.318125 
Q 57.160938 27.318125 57.160938 29.318125 
L 57.160938 72.3525 
Q 57.160938 74.3525 59.160938 74.3525 
z
" style="fill: #ffffff; opacity: 0.8; stroke: #cccccc; stroke-linejoin: miter"/>
    </g>
    <g id="line2d_35">
     <path d="M 61.160938 35.416562 
L 71.160938 35.416562 
L 81.160938 35.416562 
" style="fill: none; stroke: #0000ff; stroke-width: 1.5; stroke-linecap: square"/>
    </g>
    <g id="text_18">
     <!-- w/o Filters -->
     <g transform="translate(89.160938 38.916562) scale(0.1 -0.1)">
      <defs>
       <path id="DejaVuSans-77" d="M 269 3500 
L 844 3500 
L 1563 769 
L 2278 3500 
L 2956 3500 
L 3675 769 
L 4391 3500 
L 4966 3500 
L 4050 0 
L 3372 0 
L 2619 2869 
L 1863 0 
L 1184 0 
L 269 3500 
z
" transform="scale(0.015625)"/>
       <path id="DejaVuSans-2f" d="M 1625 4666 
L 2156 4666 
L 531 -594 
L 0 -594 
L 1625 4666 
z
" transform="scale(0.015625)"/>
       <path id="DejaVuSans-6f" d="M 1959 3097 
Q 1497 3097 1228 2736 
Q 959 2375 959 1747 
Q 959 1119 1226 758 
Q 1494 397 1959 397 
Q 2419 397 2687 759 
Q 2956 1122 2956 1747 
Q 2956 2369 2687 2733 
Q 2419 3097 1959 3097 
z
M 1959 3584 
Q 2709 3584 3137 3096 
Q 3566 2609 3566 1747 
Q 3566 888 3137 398 
Q 2709 -91 1959 -91 
Q 1206 -91 779 398 
Q 353 888 353 1747 
Q 353 2609 779 3096 
Q 1206 3584 1959 3584 
z
" transform="scale(0.015625)"/>
       <path id="DejaVuSans-46" d="M 628 4666 
L 3309 4666 
L 3309 4134 
L 1259 4134 
L 1259 2759 
L 3109 2759 
L 3109 2228 
L 1259 2228 
L 1259 0 
L 628 0 
L 628 4666 
z
" transform="scale(0.015625)"/>
      </defs>
      <use xlink:href="#DejaVuSans-77"/>
      <use xlink:href="#DejaVuSans-2f" x="81.787109"/>
      <use xlink:href="#DejaVuSans-6f" x="115.478516"/>
      <use xlink:href="#DejaVuSans-20" x="176.660156"/>
      <use xlink:href="#DejaVuSans-46" x="208.447266"/>
      <use xlink:href="#DejaVuSans-69" x="258.716797"/>
      <use xlink:href="#DejaVuSans-6c" x="286.5"/>
      <use xlink:href="#DejaVuSans-74" x="314.283203"/>
      <use xlink:href="#DejaVuSans-65" x="353.492188"/>
      <use xlink:href="#DejaVuSans-72" x="415.015625"/>
      <use xlink:href="#DejaVuSans-73" x="456.128906"/>
     </g>
    </g>
    <g id="line2d_36">
     <path d="M 61.160938 50.094687 
L 71.160938 50.094687 
L 81.160938 50.094687 
" style="fill: none; stroke: #008000; stroke-width: 1.5; stroke-linecap: square"/>
    </g>
    <g id="text_19">
     <!-- with NF -->
     <g transform="translate(89.160938 53.594687) scale(0.1 -0.1)">
      <defs>
       <path id="DejaVuSans-68" d="M 3513 2113 
L 3513 0 
L 2938 0 
L 2938 2094 
Q 2938 2591 2744 2837 
Q 2550 3084 2163 3084 
Q 1697 3084 1428 2787 
Q 1159 2491 1159 1978 
L 1159 0 
L 581 0 
L 581 4863 
L 1159 4863 
L 1159 2956 
Q 1366 3272 1645 3428 
Q 1925 3584 2291 3584 
Q 2894 3584 3203 3211 
Q 3513 2838 3513 2113 
z
" transform="scale(0.015625)"/>
      </defs>
      <use xlink:href="#DejaVuSans-77"/>
      <use xlink:href="#DejaVuSans-69" x="81.787109"/>
      <use xlink:href="#DejaVuSans-74" x="109.570312"/>
      <use xlink:href="#DejaVuSans-68" x="148.779297"/>
      <use xlink:href="#DejaVuSans-20" x="212.158203"/>
      <use xlink:href="#DejaVuSans-4e" x="243.945312"/>
      <use xlink:href="#DejaVuSans-46" x="318.75"/>
     </g>
    </g>
    <g id="line2d_37">
     <path d="M 61.160938 64.772812 
L 71.160938 64.772812 
L 81.160938 64.772812 
" style="fill: none; stroke: #ff0000; stroke-width: 1.5; stroke-linecap: square"/>
    </g>
    <g id="text_20">
     <!-- with NF+PF -->
     <g transform="translate(89.160938 68.272812) scale(0.1 -0.1)">
      <defs>
       <path id="DejaVuSans-2b" d="M 2944 4013 
L 2944 2272 
L 4684 2272 
L 4684 1741 
L 2944 1741 
L 2944 0 
L 2419 0 
L 2419 1741 
L 678 1741 
L 678 2272 
L 2419 2272 
L 2419 4013 
L 2944 4013 
z
" transform="scale(0.015625)"/>
       <path id="DejaVuSans-50" d="M 1259 4147 
L 1259 2394 
L 2053 2394 
Q 2494 2394 2734 2622 
Q 2975 2850 2975 3272 
Q 2975 3691 2734 3919 
Q 2494 4147 2053 4147 
L 1259 4147 
z
M 628 4666 
L 2053 4666 
Q 2838 4666 3239 4311 
Q 3641 3956 3641 3272 
Q 3641 2581 3239 2228 
Q 2838 1875 2053 1875 
L 1259 1875 
L 1259 0 
L 628 0 
L 628 4666 
z
" transform="scale(0.015625)"/>
      </defs>
      <use xlink:href="#DejaVuSans-77"/>
      <use xlink:href="#DejaVuSans-69" x="81.787109"/>
      <use xlink:href="#DejaVuSans-74" x="109.570312"/>
      <use xlink:href="#DejaVuSans-68" x="148.779297"/>
      <use xlink:href="#DejaVuSans-20" x="212.158203"/>
      <use xlink:href="#DejaVuSans-4e" x="243.945312"/>
      <use xlink:href="#DejaVuSans-46" x="318.75"/>
      <use xlink:href="#DejaVuSans-2b" x="376.269531"/>
      <use xlink:href="#DejaVuSans-50" x="460.058594"/>
      <use xlink:href="#DejaVuSans-46" x="520.361328"/>
     </g>
    </g>
   </g>
  </g>
 </g>
 <defs>
  <clipPath id="p9102ca8cbc">
   <rect x="52.160938" y="22.318125" width="221.76" height="221.76"/>
  </clipPath>
 </defs>
</svg>
